
<svg version="1.1" id="man" xmlns="http://www.w3.org/2000/svg" xmlns:xlink="http://www.w3.org/1999/xlink" x="0px" y="0px"
	 width="256px" height="256px" viewBox="0 0 256 256" enable-background="new 0 0 256 256" xml:space="preserve">
<rect fill="#C6D8E1" width="256" height="256"/>
<g>
	<g>
		<path fill="#7F96A6" d="M212.3,61.5c-8.4-14.3-12.4-16.2-14.6-15.4c-2.2,0.8-25.9,23.5-34.3,35.5s-11,29.3-10.4,34.7
			c0.6,5.3,1.7,7,1.7,7s-8.7,15.9-12.1,24c-3.4,8.1-12.1,24.6-14.3,24.3c-2.2-0.3-22.8-7.5-28.4-8.9c-5.6-1.4-16.9-3.6-23.3-3.4
			c0,0-8.4,11.7-18.5,16.8c-10.1,5-25.3,15.7-25,20.7c0.3,5,4.8,9.8,13.2,10.3c8.4,0.6,64.1,1.4,81.8,0.3
			c17.7-1.1,34.6-6.1,36.5-9.5c2-3.4,8.4-22.1,11.2-32.7c2.8-10.6,18.3-30.5,18.3-30.5s3.7,8.4,3.9,23.8c0.3,15.4,2.2,36.3,2.2,36.3
			l6.5,0.8l2.5-2.2c0,0-1.1-40.8-0.6-49.2c0.6-8.4,3.1-24.3,7.6-29.9c4.5-5.6,6.5-8.4,6.7-13.1C223.3,96.5,220.7,75.8,212.3,61.5z
			 M163.7,153.2c-7.3,13.4-12.9,17.6-21.1,19c-8.1,1.4-6.2,0.8-6.2,0.8s12.6-19.9,18.1-31c3.8-7.7,9.7-27.6,25.2-35.5
			C179.7,106.5,171,139.8,163.7,153.2z"/>
	</g>
</g>
</svg>
