
<svg version="1.1" id="man" xmlns="http://www.w3.org/2000/svg" xmlns:xlink="http://www.w3.org/1999/xlink" x="0px" y="0px"
	 width="256px" height="256px" viewBox="0 0 256 256" enable-background="new 0 0 256 256" xml:space="preserve">
<rect fill="#C6D8E1" width="256" height="256"/>
<path fill="#7F96A6" d="M187.7,121.6c-1.8-1.8-2.1-12.6-6-13.7c-3.9,6.6,0.9,99.3-0.6,103.1c-1.1,8.8-53.8,19.8-103.4,5.7
	c-2.2-0.8-6.2-1.7-7.3-3.7c2.1-8,5.1-82.3,1.1-101.6c-1.9,2.8-3.3,6.1-5.6,8.6c0,0-20.4,1.7-34.5-13.2c0,0,9.4-24.5,12.7-31.4
	c1.5-5,3.8-9.9,6.5-14.2c5-8,11.9-11.2,20.8-13.4C95.9,41.5,98.8,36,106.1,33c2.5,3.6,11.8,6,17.9,6.6c14.1,1.4,26.2-7.1,26.5-6.9
	c2.2,1.7,6.1,4.3,8.5,5.5c10.4,5,22.4,5.4,32.6,10.9c0,0,13.7,3.4,21.7,31.8l11,28.1C224.5,109,212.5,124.5,187.7,121.6z"/>
<path fill="#C6D8E1" d="M61.2,50.6l-3.8,1.3l0.3,0.9c0.1,0.4,11.7,39.9,10.5,63.2l-0.1,1l4,0.2l0.1-1C73.4,92,61.6,52,61.5,51.6
	L61.2,50.6z"/>
<path fill="#C6D8E1" d="M198,48.8l-3.8-1.4l-0.3,1c-0.5,1.7-13.1,42.5-12.8,63.6v1l4-0.1v-1c-0.3-20.5,12.5-61.9,12.6-62.3L198,48.8
	z"/>
<path fill="#C6D8E1" d="M154.4,35.3c-0.1,0.2-6.7,17.6-31.9,16.7c-15-1.2-20.9-10.6-22.1-16l-0.2-1l-4,0.8l0.2,1
	c1.4,6.5,8.3,17.8,25.8,19.2c0.4,0,0.9,0,1.3,0l0,0c0.2,0,0.4,0,0.6,0c22.7,0,32.4-14.4,34-19.5l0.3-1l-3.8-1.2L154.4,35.3z"/>
</svg>
