
<svg version="1.1" id="man" xmlns="http://www.w3.org/2000/svg" xmlns:xlink="http://www.w3.org/1999/xlink" x="0px" y="0px"
	 width="256px" height="256px" viewBox="0 0 256 256" enable-background="new 0 0 256 256" xml:space="preserve">
<rect fill="#C6D8E1" width="256" height="256"/>
<path fill="#7F96A6" d="M208.6,131c0.6,0.2,1.2,0.3,1.9,0.3c2.5,0,4.7-1.4,5.6-3.6c1-2.8-0.6-5.8-3.7-6.7l-26.2-7.8l16.7-15.1
	c2.3-2.1,2.3-5.4,0-7.5s-6-2.1-8.3,0l-13.7,12.3C179.7,83.5,162,68,140.1,68h-24.2c-22.6,0-41,16.6-41,36.9v15.8h99.4L208.6,131z
	 M230,164.5l-36.9-33.2H70.3l-36.9,33.2c-1.7,1.5-2.2,3.8-1.3,5.7c0.9,2,3,3.3,5.4,3.3h36.8c13.8,0,27.2,2.3,39.8,6.9
	c14.1,5.1,29.8,7.6,44.8,7.6c12.7,0,25.5-1.8,37.7-5.5l31.1-9.3c1.9-0.6,3.4-2,3.9-3.8C232,167.6,231.4,165.8,230,164.5z"/>
</svg>
