<svg version="1.1" id="woman" xmlns="http://www.w3.org/2000/svg" x="0px" y="0px" viewBox="0 0 256 256" style="width: 256px; height: 256px;">
<rect fill="#C6D8E1" width="256" height="256"/>
<path fill="#7F96A6" d="M150.5,160.1L150.5,160.1V152c0,0,25.4,0.8,37.4-11.5c0,0-17.5-4.9-14.4-36.9c3.1-31.9-3.9-59.9-29.6-57.5
	c0,0-11.1-13.4-33.2-4.9c-7.6,2.9-28,10.2-26.9,54.4c1,44.2-15.7,44.5-15.7,44.5s8.6,12.6,37.9,12.3v8.2l22.3,65l22.2-64.9
	L150.5,160.1z"/>
<path fill="#7F96A6" d="M210,256l-4.5-54.2c-1.5-8-6.6-14.9-13.9-18.5l-28-13.8c-1.6-0.8-3.2-1.7-4.8-2.6l8.8,26.1l-12.4-0.9
	L128,225.6L100.7,192L88.4,193l9-26.1l-5.6,2.9l-27.4,13.5c-7.3,3.6-12.5,10.5-13.9,18.5L46,256H210z"/>
</svg>