
<svg version="1.1" id="man" xmlns="http://www.w3.org/2000/svg" xmlns:xlink="http://www.w3.org/1999/xlink" x="0px" y="0px"
	 width="256px" height="256px" viewBox="0 0 256 256" enable-background="new 0 0 256 256" xml:space="preserve">
<rect fill="#C6D8E1" width="256" height="256"/>
<path fill-rule="evenodd" clip-rule="evenodd" fill="#7F96A6" d="M192.7,54c0,0,5.3,0.3,13.2,9.2c7.9,8.9,14.3,19,15.8,25.8
	c1.5,6.8,2,13.6,0.3,17.5c-1.8,3.9-11.4,34.4-11.7,43.9c-0.3,9.5-2.6,53-2.6,53h-10.5l-2.1-57.7c0,0-0.3-10.7-3.8-10.7
	c-3.5,0-16.7,4.4-28.9,27C150,184.5,143,197.5,136,200.8c-7,3.3-57.3,4.2-71,2.1c-13.7-2.1-31.3-9.5-31.3-9.5s-3.8-7.1,7-10.1
	c10.8-3,41.8-13,48.2-16.9c3.7-2.2,29,6.9,38.9-5.1c9.1-11.1,37.3-71,45.6-82.9C183.4,64.1,190.8,54,192.7,54z"/>
</svg>
