<svg version="1.1" id="man" xmlns="http://www.w3.org/2000/svg" x="0px" y="0px" viewBox="0 0 256 256" style="width: 256px; height: 256px;">
<rect fill="#C6D8E1" width="256" height="256"/>
<path fill="#7F96A6" d="M172.6,93.4c11.6-44.7-11.2-48.6-11.7-48.1c-22.4-31.3-90.3-16.8-77.4,48.1c-13.3-2.4-1.8,31.6,3.7,32.1
	c0,0,0,0,0,0c0.2,0,0.3,0,0.5-0.1c14.4,49.7,62.7,50.2,80.7,0C172.3,127.3,186.5,93.3,172.6,93.4z"/>
<path fill="#7F96A6" d="M205.4,177.9c-24-6.1-43.5-19.8-43.5-19.8l-20.6,64.8l-8-22.8c19.7-27.5-30.3-27.5-10.6,0l-8,22.8L94,158.1
	c0,0-19.5,13.7-43.5,19.8C32.7,182.5,30,256,30,256h196C226,256,223.3,182.5,205.4,177.9z"/>
</svg>
